<svg width="25" height="25" viewBox="0 0 25 25" fill="none" xmlns="http://www.w3.org/2000/svg">
<mask id="mask0_328_610" style="mask-type:luminance" maskUnits="userSpaceOnUse" x="0" y="0" width="25" height="25">
<path d="M0.052002 0.349121H24.0364V24.3387H0.052002V0.349121Z" fill="white"/>
</mask>
<g mask="url(#mask0_328_610)">
<path d="M24.0364 12.3439C24.0364 18.9689 18.6666 24.3387 12.0416 24.3387C5.42179 24.3387 0.052002 18.9689 0.052002 12.3439C0.052002 5.71891 5.42179 0.349121 12.0416 0.349121C18.6666 0.349121 24.0364 5.71891 24.0364 12.3439Z" fill="#7AC943"/>
</g>
<mask id="mask1_328_610" style="mask-type:luminance" maskUnits="userSpaceOnUse" x="8" y="6" width="17" height="19">
<path d="M8.7135 6.82812H24.0364V24.3385H8.7135V6.82812Z" fill="white"/>
</mask>
<g mask="url(#mask1_328_610)">
<mask id="mask2_328_610" style="mask-type:luminance" maskUnits="userSpaceOnUse" x="0" y="0" width="25" height="25">
<path d="M24.0364 12.3439C24.0364 18.9689 18.6666 24.3387 12.0416 24.3387C5.42179 24.3387 0.052002 18.9689 0.052002 12.3439C0.052002 5.71891 5.42179 0.349121 12.0416 0.349121C18.6666 0.349121 24.0364 5.71891 24.0364 12.3439Z" fill="white"/>
</mask>
<g mask="url(#mask2_328_610)">
<path d="M29.3749 16.526L19.6926 6.84375L8.72388 17.875L17.5051 26.6563L29.3749 16.526Z" fill="#69AD3A"/>
</g>
</g>
<path d="M19.6926 6.84391C19.3749 6.5262 18.9478 6.34912 18.4947 6.34912C18.0416 6.34912 17.6145 6.5262 17.2968 6.84391L9.89575 14.245L6.79159 11.146C6.47388 10.8231 6.04679 10.6512 5.59367 10.6512C5.14055 10.6512 4.71346 10.8231 4.39575 11.146C3.73429 11.8075 3.73429 12.8856 4.39575 13.5418L8.677 17.8283C8.68221 17.8335 8.68742 17.8387 8.69263 17.8439C8.77596 17.9272 8.8645 18.0002 8.95825 18.0627C9.2395 18.245 9.56242 18.3439 9.89575 18.3439C10.3489 18.3439 10.776 18.1668 11.0937 17.8439C11.1093 17.8283 19.3437 9.59391 19.6926 9.24495C20.0155 8.92204 20.1874 8.49495 20.1874 8.04183C20.1874 7.5887 20.0155 7.16683 19.6926 6.84391Z" fill="white"/>
</svg>
