<svg width="25" height="25" viewBox="0 0 25 25" fill="none" xmlns="http://www.w3.org/2000/svg">
<mask id="mask0_328_611" style="mask-type:luminance" maskUnits="userSpaceOnUse" x="0" y="0" width="25" height="25">
<path d="M0.484375 0.104004H24.474V24.0936H0.484375V0.104004Z" fill="white"/>
</mask>
<g mask="url(#mask0_328_611)">
<path d="M24.474 11.8854C24.474 11.9583 24.474 12.026 24.474 12.099C24.3594 18.5052 19.0313 23.6615 12.4792 23.6615C5.92708 23.6615 0.604167 18.5052 0.484375 12.099C0.484375 12.026 0.484375 11.9583 0.484375 11.8854C0.484375 5.38542 5.85937 0.109375 12.4792 0.109375C19.1094 0.109375 24.474 5.38542 24.474 11.8854Z" fill="#EB4F45"/>
</g>
<path d="M14.4426 11.8908L19.4895 16.8491L17.5468 18.7606L12.4947 13.8022L7.44263 18.7606L5.49992 16.8491L10.5468 11.8908L5.4895 6.93245L7.43742 5.021L12.4895 9.97933L17.5364 5.021L19.4843 6.93245L14.4426 11.8908Z" fill="white"/>
</svg>
