<svg width="42" height="42" viewBox="0 0 42 42" fill="none" xmlns="http://www.w3.org/2000/svg">
<mask id="mask0_250_1987" style="mask-type:luminance" maskUnits="userSpaceOnUse" x="0" y="0" width="42" height="42">
<path d="M0 0H41.9792V41.9792H0V0Z" fill="white"/>
</mask>
<g mask="url(#mask0_250_1987)">
<path d="M20.4324 2.14062C9.94026 2.14062 1.43237 10.6485 1.43237 21.1406C1.43237 31.6327 9.94026 40.1406 20.4324 40.1406C30.9292 40.1406 39.4324 31.6327 39.4324 21.1406C39.4324 10.6485 30.9292 2.14062 20.4324 2.14062ZM32.0102 28.3756C32.0102 29.8778 30.7981 31.0899 29.3006 31.0899H11.5688C10.0713 31.0899 8.85454 29.8778 8.85454 28.3756V13.9056C8.85454 12.4081 10.0713 11.1914 11.5688 11.1914H29.3006C30.7981 11.1914 32.0102 12.4081 32.0102 13.9056V28.3756Z" fill="#5D3BA2"/>
</g>
<path d="M27.1979 14.6302L20.7135 18.3698L14.2343 14.6302C13.5104 14.2135 12.5885 14.4583 12.1718 15.1823C11.7552 15.9062 11.9999 16.8281 12.7239 17.2448L19.9583 21.4219C20.1875 21.5573 20.4531 21.625 20.7135 21.625C20.9791 21.625 21.2395 21.5573 21.4687 21.4219L28.7083 17.2448C29.427 16.8281 29.677 15.9062 29.2604 15.1823C28.8437 14.4583 27.9166 14.2135 27.1979 14.6302Z" fill="#5D3BA2"/>
</svg>
