<svg width="139" height="133" viewBox="0 0 139 133" fill="none" xmlns="http://www.w3.org/2000/svg">
<path d="M20.4443 17.6815C19.3356 18.6273 18.2625 19.6026 17.2427 20.6075C5.87123 31.7853 0.126203 46.3855 0.00169864 61.4469C-0.110949 76.4905 5.37914 91.9833 16.4957 104.97C17.6518 106.324 18.8791 107.659 20.1597 108.954C33.6359 122.573 51.3097 130.24 69.0013 131.623C86.7166 133.006 104.462 128.094 118.021 116.556C119.135 115.61 120.203 114.629 121.228 113.63C132.594 102.452 138.345 87.8456 138.463 72.7784C138.582 57.7407 133.086 42.2478 121.969 29.2672C120.813 27.9076 119.586 26.5776 118.305 25.2772C104.829 11.6522 87.1554 3.98562 69.4638 2.60835C51.7484 1.22516 34.0094 6.13724 20.4443 17.6815ZM18.6182 22.0025C19.6083 21.0272 20.6399 20.0814 21.719 19.1711C34.8691 7.98149 52.0923 3.21719 69.3096 4.55899C86.5506 5.90671 103.78 13.3783 116.906 26.6486C118.157 27.9194 119.349 29.214 120.481 30.538C131.278 43.1522 136.619 58.1899 136.501 72.7665C136.388 87.3254 130.833 101.435 119.847 112.229C118.863 113.198 117.825 114.15 116.746 115.066C103.602 126.256 86.3727 131.014 69.1555 129.666C51.9144 128.324 34.6853 120.853 21.5648 107.583C20.3138 106.318 19.1162 105.017 17.9897 103.693C7.18743 91.079 1.84556 76.0472 1.96414 61.4705C2.07679 46.9116 7.63802 32.802 18.6182 22.0025Z" fill="white"/>
<path fill-rule="evenodd" clip-rule="evenodd" d="M48.1022 7.12397C14.8653 18.7628 -2.61288 55.0507 9.06097 88.188C20.7289 121.319 57.1318 138.745 90.3629 127.112C123.6 115.473 141.084 79.1796 129.41 46.0482C117.742 12.9109 81.3333 -4.52079 48.1022 7.12397Z" fill="white"/>
<path fill-rule="evenodd" clip-rule="evenodd" d="M44.622 131.114C31.0331 127.976 24.3395 122.868 14.1004 109.515C3.86132 96.1682 1.89889 115.994 18.4403 124.63C34.9817 133.272 58.2049 134.253 44.622 131.114Z" fill="white"/>
<path fill-rule="evenodd" clip-rule="evenodd" d="M90.5822 1.63276C104.171 4.77744 110.865 9.87867 121.098 23.2258C131.343 36.5789 133.305 16.7591 116.764 8.12309C100.222 -0.518856 76.9933 -1.506 90.5822 1.63276Z" fill="white"/>
<mask id="mask0_734_1666" style="mask-type:luminance" maskUnits="userSpaceOnUse" x="13" y="26" width="92" height="82">
<path d="M13.561 26.0693H104.533V107.701H13.561V26.0693Z" fill="white"/>
</mask>
<g mask="url(#mask0_734_1666)">
<path d="M101.337 26.2942L14.8357 65.1062C14.4207 65.2894 14.1005 65.5731 13.8693 65.9574C13.6381 66.3475 13.5314 66.7613 13.561 67.2105C13.5906 67.6597 13.7507 68.0617 14.0294 68.4164C14.314 68.7651 14.6697 69.0075 15.1025 69.1375L44.379 77.8918L52.5667 106.478C52.6794 106.862 52.8809 107.187 53.1714 107.459C53.4679 107.731 53.8118 107.908 54.2031 107.991C54.3513 108.02 54.4995 108.038 54.6477 108.038C55.3236 108.038 55.875 107.778 56.3078 107.264L72.6061 87.7632L101.42 99.2543C101.681 99.3607 101.948 99.4139 102.227 99.4139C102.511 99.4139 102.79 99.3607 103.051 99.2484C103.317 99.142 103.555 98.9824 103.756 98.7814C103.958 98.5804 104.112 98.344 104.225 98.0839C104.331 97.8179 104.391 97.5401 104.391 97.2563V28.2626C104.391 28.0794 104.367 27.9021 104.319 27.7306C104.278 27.5533 104.213 27.3878 104.124 27.2341C104.041 27.0745 103.934 26.9267 103.809 26.7967C103.691 26.6666 103.549 26.5484 103.4 26.4538C103.246 26.3534 103.086 26.2765 102.914 26.2174C102.742 26.1583 102.57 26.1228 102.387 26.111C102.209 26.0992 102.031 26.1051 101.853 26.1406C101.675 26.1701 101.503 26.2233 101.337 26.2942ZM21.8969 66.6667L88.7562 36.6681L45.1201 73.6122L21.8969 66.6667ZM55.6082 101.37L48.458 76.4436L84.7424 45.7179L57.3098 78.6306C57.0904 78.8966 56.9422 79.1981 56.8651 79.535C56.788 79.872 56.794 80.203 56.877 80.5399C56.96 80.8709 57.12 81.1665 57.3453 81.4266C57.5766 81.6867 57.8493 81.8817 58.1694 82.0058L68.3848 86.0786L55.6082 101.37ZM100.062 94.0703L62.539 79.1094L100.062 34.0909V94.0703Z" fill="#7261E9"/>
</g>
</svg>
