<svg width="54" height="51" viewBox="0 0 54 51" fill="none" xmlns="http://www.w3.org/2000/svg">
<mask id="mask0_19_913" style="mask-type:luminance" maskUnits="userSpaceOnUse" x="0" y="1" width="54" height="50">
<path d="M0.776123 1.33331H53.7501V50.6666H0.776123V1.33331Z" fill="white"/>
</mask>
<g mask="url(#mask0_19_913)">
<path d="M9.31768 7.33329C8.90623 7.68225 8.51039 8.04684 8.13018 8.42184C3.90623 12.5833 1.77602 18.0208 1.72914 23.6302C1.68748 29.2343 3.72393 35 7.84893 39.8333C8.28123 40.3385 8.73435 40.8385 9.21352 41.3229C14.2135 46.3906 20.776 49.2448 27.3437 49.7604C33.9219 50.276 40.5104 48.4479 45.5469 44.151C45.9583 43.7968 46.3541 43.4323 46.7344 43.0625C50.9531 38.8958 53.0885 33.4583 53.1354 27.8489C53.1771 22.25 51.1354 16.4791 47.0104 11.6458C46.5781 11.1406 46.125 10.6458 45.651 10.1614C40.6458 5.0885 34.0833 2.23434 27.5156 1.71871C20.9375 1.20309 14.3541 3.03642 9.31768 7.33329ZM8.6406 8.94267C9.01039 8.57809 9.3906 8.22913 9.79164 7.88538C14.6719 3.71871 21.0677 1.94788 27.4583 2.44788C33.8593 2.94788 40.2552 5.72913 45.1302 10.6718C45.5937 11.1458 46.0364 11.625 46.4583 12.1198C50.4635 16.8177 52.4479 22.4166 52.4062 27.8437C52.3646 33.2656 50.3021 38.5208 46.2239 42.5364C45.8541 42.901 45.4687 43.2552 45.0729 43.5937C40.1927 47.7604 33.7916 49.5364 27.401 49.0312C21 48.5312 14.6041 45.75 9.73435 40.8073C9.27081 40.3385 8.82289 39.8541 8.40623 39.3645C4.39581 34.6666 2.41664 29.0677 2.45831 23.6354C2.49998 18.2187 4.56247 12.9635 8.6406 8.94267Z" fill="#2C66FF"/>
</g>
<path fill-rule="evenodd" clip-rule="evenodd" d="M19.5834 3.40102C7.24486 7.73435 0.76048 21.25 5.09381 33.5885C9.42194 45.9271 22.9376 52.4166 35.2761 48.0833C47.6147 43.75 54.1042 30.2344 49.7709 17.8958C45.4428 5.55727 31.9219 -0.932314 19.5834 3.40102Z" fill="#8FADFF"/>
<path fill-rule="evenodd" clip-rule="evenodd" d="M18.2915 49.5729C13.2499 48.4011 10.7655 46.5 6.9634 41.5313C3.16132 36.5573 2.43215 43.9427 8.57278 47.1563C14.7134 50.375 23.3384 50.7396 18.2915 49.5729Z" fill="#8FADFF"/>
<path fill-rule="evenodd" clip-rule="evenodd" d="M35.3593 1.35939C40.4009 2.52606 42.8853 4.4271 46.6874 9.39585C50.4895 14.3698 51.2186 6.9896 45.078 3.77085C38.9374 0.557311 30.3124 0.18752 35.3593 1.35939Z" fill="#8FADFF"/>
<mask id="mask1_19_913" style="mask-type:luminance" maskUnits="userSpaceOnUse" x="6" y="10" width="35" height="32">
<path d="M6.7605 10.4583H40.6667V41.3333H6.7605V10.4583Z" fill="white"/>
</mask>
<g mask="url(#mask1_19_913)">
<path d="M39.3491 10.5417L7.23448 24.9896C6.89594 25.1458 6.73969 25.4062 6.76573 25.776C6.78656 26.1458 6.97927 26.3854 7.33344 26.4896L18.2032 29.75L21.2449 40.3958C21.3334 40.7031 21.5366 40.8906 21.8491 40.9583C21.9064 40.9687 21.9584 40.974 22.0157 40.9792C22.2657 40.9792 22.4741 40.8802 22.6355 40.6875L28.6824 33.4271L39.3803 37.7083C39.4741 37.7448 39.573 37.7656 39.6772 37.7656C39.9011 37.7656 40.0886 37.6875 40.2449 37.5312C40.4011 37.375 40.4793 37.1823 40.4793 36.9635V11.2708C40.4793 11.1354 40.448 11.0104 40.3803 10.8906C40.3178 10.7708 40.2293 10.6719 40.1147 10.599C40.0001 10.526 39.8751 10.4844 39.7397 10.474C39.6043 10.4635 39.4741 10.4844 39.3491 10.5417ZM9.85948 25.5729L34.6772 14.401L18.4793 28.1615L9.85948 25.5729ZM22.3699 38.4948L19.7189 29.2135L33.1876 17.7708L23.0053 30.026C22.922 30.125 22.8647 30.2396 22.8386 30.3646C22.8074 30.4896 22.8126 30.6146 22.8439 30.7396C22.8751 30.8646 22.9324 30.974 23.0157 31.0677C23.1043 31.1667 23.2032 31.2396 23.323 31.2865L27.1147 32.8021L22.3699 38.4948ZM38.8751 35.776L24.9428 30.2031L38.8751 13.4427V35.776Z" fill="white"/>
</g>
</svg>
