<svg width="36" height="36" viewBox="0 0 36 36" fill="none" xmlns="http://www.w3.org/2000/svg">
<mask id="mask0_250_1984" style="mask-type:luminance" maskUnits="userSpaceOnUse" x="0" y="0" width="36" height="36">
<path d="M0 0H35.7709V35.776H0V0Z" fill="white"/>
</mask>
<g mask="url(#mask0_250_1984)">
<path d="M17.8315 3.21847C22.5947 3.21847 23.1589 3.23319 25.0426 3.31659C26.7791 3.39509 27.7259 3.68456 28.3587 3.93478C29.1877 4.25368 29.7813 4.64618 30.4043 5.27417C31.0322 5.89726 31.4148 6.49091 31.7435 7.32006C31.9839 7.94805 32.2733 8.89495 32.3616 10.6367C32.445 12.5206 32.4646 13.0848 32.4646 17.8488C32.4646 22.6078 32.445 23.172 32.3616 25.056C32.2831 26.7928 31.9937 27.7397 31.7435 28.3726C31.4246 29.2017 31.0322 29.7954 30.4043 30.4234C29.7813 31.0465 29.1877 31.4291 28.3587 31.7579C27.7308 32.0032 26.784 32.2926 25.0426 32.376C23.1589 32.4644 22.5947 32.4791 17.8315 32.4791C13.0732 32.4791 12.509 32.4644 10.6253 32.376C8.88877 32.2975 7.94201 32.0081 7.3092 31.7579C6.48017 31.439 5.8866 31.0465 5.2587 30.4234C4.6357 29.7954 4.25307 29.2017 3.9244 28.3726C3.67913 27.7446 3.39461 26.8026 3.30631 25.056C3.21801 23.172 3.20329 22.6078 3.20329 17.8488C3.20329 13.0848 3.21801 12.5206 3.30631 10.6367C3.3848 8.89986 3.67422 7.95296 3.9244 7.32006C4.24326 6.49091 4.6357 5.89726 5.2587 5.27417C5.8866 4.64618 6.48017 4.26349 7.3092 3.93478C7.9371 3.69437 8.87896 3.40491 10.6253 3.31659C12.509 3.23319 13.0732 3.21847 17.8315 3.21847ZM17.8315 0C12.9849 0 12.3815 0.0245316 10.4782 0.112843C8.57482 0.196248 7.27976 0.500433 6.14659 0.941991C4.96927 1.39336 3.97836 2.00173 2.98745 2.99769C2.00144 3.98874 1.38826 4.9847 0.936951 6.15729C0.500361 7.29062 0.196219 8.59076 0.107921 10.4895C0.0245266 12.3882 0 12.9965 0 17.839C0 22.6863 0.0245266 23.2898 0.107921 25.1983C0.196219 27.097 0.500361 28.3971 0.936951 29.5304C1.38826 30.703 2.00145 31.6941 2.99236 32.69C3.98817 33.6811 4.97908 34.2944 6.1515 34.7457C7.28467 35.1824 8.58463 35.4866 10.4831 35.5749C12.3815 35.6583 12.9947 35.6828 17.8413 35.6828C22.6879 35.6828 23.2913 35.6583 25.1996 35.5749C27.098 35.4866 28.3979 35.1824 29.5311 34.7457C30.7035 34.2944 31.6944 33.6811 32.6903 32.69C33.6812 31.6941 34.2944 30.703 34.7457 29.5304C35.1823 28.3971 35.4864 27.097 35.5747 25.1983C35.6581 23.2996 35.6826 22.6863 35.6826 17.839C35.6826 12.9916 35.6581 12.3882 35.5747 10.4797C35.4864 8.58095 35.1823 7.28081 34.7457 6.14747C34.2944 4.97489 33.6812 3.98384 32.6903 2.98788C31.6944 1.99683 30.7035 1.38846 29.5311 0.932179C28.3979 0.495527 27.098 0.191341 25.1996 0.10303C23.2913 0.024531 22.683 0 17.8315 0Z" fill="#5D3BA2"/>
</g>
<path d="M17.9904 9C13.023 9 9 13.0252 9 17.9952C9 22.9652 13.0327 27 18 27C22.9673 27 27 22.9748 27 17.9952C26.9904 13.0252 22.9625 9 17.9904 9ZM17.9904 23.8425C14.7671 23.8425 12.1558 21.2298 12.1558 18.0048C12.1558 14.775 14.7671 12.1623 17.9904 12.1623C21.2184 12.1623 23.8298 14.775 23.8298 18.0048C23.8346 21.2201 21.2184 23.8425 17.9904 23.8425Z" fill="#5D3BA2"/>
<path d="M29 7.99771C29 9.10195 28.1019 10 27.0023 10C25.8981 10 25 9.10195 25 7.99771C25 6.89805 25.8981 6 27.0023 6C28.1019 6 29 6.88889 29 7.99771Z" fill="#5D3BA2"/>
</svg>
