<svg width="37" height="37" viewBox="0 0 37 37" fill="none" xmlns="http://www.w3.org/2000/svg">
<mask id="mask0_19_545" style="mask-type:luminance" maskUnits="userSpaceOnUse" x="0" y="0" width="37" height="37">
<path d="M0.578125 0.984367H36.5573V36.9687H0.578125V0.984367Z" fill="white"/>
</mask>
<g mask="url(#mask0_19_545)">
<path d="M18.6979 0.984367C8.70312 0.984367 0.578125 9.10937 0.578125 19.1094C0.578125 29.1042 8.70312 37.2344 18.6979 37.2344C28.6979 37.2344 36.8229 29.1042 36.8229 19.1094C36.8229 9.10937 28.6979 0.984367 18.6979 0.984367ZM28.8854 20.8594H20.4531V29.2917C20.4531 30.25 19.6719 31.0469 18.6979 31.0469C17.7292 31.0469 16.9479 30.25 16.9479 29.2917V20.8594H8.51562C7.55729 20.8594 6.76042 20.0781 6.76042 19.1094C6.76042 18.1354 7.55729 17.3542 8.51562 17.3542H16.9479V8.92187C16.9479 7.96353 17.7292 7.17187 18.6979 7.17187C19.6719 7.17187 20.4531 7.96353 20.4531 8.92187V17.3542H28.8854C29.8438 17.3542 30.6406 18.1354 30.6406 19.1094C30.6406 20.0781 29.8438 20.8594 28.8854 20.8594Z" fill="#5E17EB"/>
</g>
</svg>
