<svg width="627" height="413" viewBox="0 0 627 413" fill="none" xmlns="http://www.w3.org/2000/svg">
<mask id="mask0_504_1579" style="mask-type:luminance" maskUnits="userSpaceOnUse" x="326" y="0" width="301" height="413">
<path d="M326.667 0.276367H626.261V412.667H326.667V0.276367Z" fill="white"/>
</mask>
<g mask="url(#mask0_504_1579)">
<path d="M327.443 154.328C332.542 84.7191 367.474 23.0524 443.052 4.50553C454.557 1.67741 466.406 0.276367 478.276 0.276367C559.63 0.276367 625.578 66.2243 625.578 147.578C625.578 183.537 612.193 218.709 588.271 245.542C576.474 258.771 562.323 269.855 546.625 278.089C528.328 287.688 510.255 289.427 490.787 294.677C472.787 299.516 472.818 324 477.354 338.511C485.13 363.417 503.662 379.953 529.708 383.042C535.063 383.672 540.5 383.875 545.771 385.105C556.135 387.526 565.089 396.323 553.547 403.688C535.729 415.058 506.385 412.98 486.646 409.11C463.938 404.657 442.542 394.651 423.599 381.506C359.922 337.313 321.188 239.849 327.443 154.328Z" fill="#6416FF"/>
</g>
<mask id="mask1_504_1579" style="mask-type:luminance" maskUnits="userSpaceOnUse" x="0" y="0" width="300" height="413">
<path d="M0 0.276367H300V412.667H0V0.276367Z" fill="white"/>
</mask>
<g mask="url(#mask1_504_1579)">
<path d="M1.81254 154.328C6.9063 84.7191 41.8438 23.0524 117.417 4.50553C128.927 1.67741 140.776 0.276367 152.641 0.276367C234 0.276367 299.943 66.2243 299.943 147.578C299.943 183.537 286.563 218.709 262.641 245.542C250.844 258.771 236.693 269.855 220.99 278.089C202.698 287.688 184.625 289.427 165.156 294.677C147.151 299.516 147.188 324 151.719 338.511C159.495 363.417 178.026 379.953 204.078 383.042C209.432 383.672 214.87 383.875 220.135 385.105C230.505 387.526 239.453 396.323 227.912 403.688C210.094 415.058 180.755 412.98 161.01 409.11C138.302 404.657 116.906 394.651 97.9688 381.506C34.2865 337.313 -4.44787 239.849 1.81254 154.328Z" fill="#6416FF"/>
</g>
</svg>
