<svg width="348" height="300" viewBox="0 0 348 300" fill="none" xmlns="http://www.w3.org/2000/svg">
<mask id="mask0_19_912" style="mask-type:luminance" maskUnits="userSpaceOnUse" x="0" y="174" width="139" height="78">
<path d="M0 174.667H138.667V252H0V174.667Z" fill="white"/>
</mask>
<g mask="url(#mask0_19_912)">
<mask id="mask1_19_912" style="mask-type:luminance" maskUnits="userSpaceOnUse" x="-40" y="0" width="454" height="335">
<path d="M-39.6406 146.432L342.188 0.401001L413.953 188.047L32.125 334.078L-39.6406 146.432Z" fill="white"/>
</mask>
<g mask="url(#mask1_19_912)">
<mask id="mask2_19_912" style="mask-type:luminance" maskUnits="userSpaceOnUse" x="-40" y="0" width="454" height="335">
<path d="M-39.6406 146.432L342.188 0.401001L413.953 188.047L32.125 334.078L-39.6406 146.432Z" fill="white"/>
</mask>
<g mask="url(#mask2_19_912)">
<path d="M131.667 212.964C131.62 212.979 131.573 212.995 131.521 213.01L2.71347 251.385C1.71868 251.677 0.66139 251.177 0.270764 250.214C-0.125069 249.255 0.270764 248.156 1.18743 247.667L135.557 176.099C136.234 175.74 137.062 175.792 137.682 176.245C138.307 176.693 138.625 177.458 138.495 178.214L132.937 211.406C132.818 212.12 132.328 212.708 131.667 212.964ZM20.8593 241.76L129.161 209.5L133.838 181.589L20.8593 241.76Z" fill="#8FADFF"/>
</g>
</g>
</g>
<mask id="mask3_19_912" style="mask-type:luminance" maskUnits="userSpaceOnUse" x="0" y="233" width="126" height="67">
<path d="M0 233.333H125.333V300H0V233.333Z" fill="white"/>
</mask>
<g mask="url(#mask3_19_912)">
<mask id="mask4_19_912" style="mask-type:luminance" maskUnits="userSpaceOnUse" x="-40" y="0" width="454" height="335">
<path d="M-39.6406 146.432L342.188 0.401062L413.953 188.047L32.125 334.078L-39.6406 146.432Z" fill="white"/>
</mask>
<g mask="url(#mask4_19_912)">
<mask id="mask5_19_912" style="mask-type:luminance" maskUnits="userSpaceOnUse" x="-40" y="0" width="454" height="335">
<path d="M-39.6406 146.432L342.188 0.401062L413.953 188.047L32.125 334.078L-39.6406 146.432Z" fill="white"/>
</mask>
<g mask="url(#mask5_19_912)">
<path d="M123.297 299.115C122.833 299.292 122.307 299.292 121.833 299.104L1.39059 251.323C0.531211 250.984 0.0103771 250.099 0.135377 249.182C0.255169 248.266 0.984334 247.547 1.90621 247.443L115.437 234.448C115.974 234.385 116.505 234.542 116.927 234.875C117.344 235.208 117.615 235.693 117.677 236.224L124.583 297C124.661 297.703 124.37 298.401 123.807 298.828C123.646 298.948 123.479 299.047 123.297 299.115ZM10.3593 250.542L120.193 294.109L113.891 238.693L10.3593 250.542Z" fill="#8FADFF"/>
</g>
</g>
</g>
<mask id="mask6_19_912" style="mask-type:luminance" maskUnits="userSpaceOnUse" x="113" y="233" width="45" height="31">
<path d="M113.333 233.333H157.333V264H113.333V233.333Z" fill="white"/>
</mask>
<g mask="url(#mask6_19_912)">
<mask id="mask7_19_912" style="mask-type:luminance" maskUnits="userSpaceOnUse" x="-40" y="0" width="454" height="335">
<path d="M-39.6406 146.432L342.188 0.401062L413.953 188.047L32.125 334.078L-39.6406 146.432Z" fill="white"/>
</mask>
<g mask="url(#mask7_19_912)">
<mask id="mask8_19_912" style="mask-type:luminance" maskUnits="userSpaceOnUse" x="-40" y="0" width="454" height="335">
<path d="M-39.6406 146.432L342.188 0.401062L413.953 188.047L32.125 334.078L-39.6406 146.432Z" fill="white"/>
</mask>
<g mask="url(#mask8_19_912)">
<path d="M154.823 257.594C154.703 257.635 154.578 257.672 154.448 257.693L118.922 263.964C118.375 264.062 117.807 263.927 117.359 263.594C116.911 263.26 116.625 262.755 116.563 262.203L113.661 236.682C113.578 235.943 113.906 235.219 114.51 234.797C115.12 234.375 115.911 234.312 116.573 234.646L155 253.901C155.781 254.292 156.219 255.135 156.094 255.995C155.99 256.729 155.495 257.333 154.823 257.594ZM120.333 259.615L147.74 254.776L118.099 239.927L120.333 259.615Z" fill="#8FADFF"/>
</g>
</g>
</g>
<mask id="mask9_19_912" style="mask-type:luminance" maskUnits="userSpaceOnUse" x="0" y="208" width="158" height="51">
<path d="M0 208H157.333V258.667H0V208Z" fill="white"/>
</mask>
<g mask="url(#mask9_19_912)">
<mask id="mask10_19_912" style="mask-type:luminance" maskUnits="userSpaceOnUse" x="-40" y="0" width="454" height="335">
<path d="M-39.6406 146.432L342.188 0.401001L413.953 188.047L32.125 334.078L-39.6406 146.432Z" fill="white"/>
</mask>
<g mask="url(#mask10_19_912)">
<mask id="mask11_19_912" style="mask-type:luminance" maskUnits="userSpaceOnUse" x="-40" y="0" width="454" height="335">
<path d="M-39.6406 146.432L342.188 0.401001L413.953 188.047L32.125 334.078L-39.6406 146.432Z" fill="white"/>
</mask>
<g mask="url(#mask11_19_912)">
<path d="M154.823 257.594C154.302 257.792 153.714 257.771 153.193 257.51L115.302 238.526L2.36454 251.453C1.32808 251.573 0.369748 250.875 0.156206 249.854C-0.052127 248.828 0.546831 247.812 1.55725 247.51L130.37 209.141C131.297 208.865 132.292 209.281 132.74 210.146L155.891 254.776C156.297 255.552 156.151 256.5 155.536 257.125C155.328 257.333 155.083 257.49 154.823 257.594ZM24.6979 244.833L115.443 234.448C115.833 234.401 116.224 234.474 116.578 234.651L149.443 251.115L129.922 213.49L24.6979 244.833Z" fill="#8FADFF"/>
</g>
</g>
</g>
<mask id="mask12_19_912" style="mask-type:luminance" maskUnits="userSpaceOnUse" x="167" y="0" width="177" height="255">
<path d="M168 0H344V254.667H168V0Z" fill="white"/>
</mask>
<g mask="url(#mask12_19_912)">
<mask id="mask13_19_912" style="mask-type:luminance" maskUnits="userSpaceOnUse" x="-40" y="0" width="454" height="335">
<path d="M-39.6406 146.432L342.188 0.401062L413.953 188.047L32.125 334.078L-39.6406 146.432Z" fill="white"/>
</mask>
<g mask="url(#mask13_19_912)">
<mask id="mask14_19_912" style="mask-type:luminance" maskUnits="userSpaceOnUse" x="-40" y="0" width="454" height="335">
<path d="M-39.6406 146.432L342.188 0.401062L413.953 188.047L32.125 334.078L-39.6406 146.432Z" fill="white"/>
</mask>
<g mask="url(#mask14_19_912)">
<path d="M171.88 253.63C170.906 254.005 169.797 253.573 169.339 252.615C168.859 251.609 169.281 250.406 170.287 249.922C170.344 249.896 176.115 247.115 185.349 241.771C186.313 241.214 187.547 241.542 188.104 242.505C188.667 243.474 188.333 244.708 187.37 245.266C177.984 250.698 172.271 253.448 172.031 253.563C171.979 253.589 171.932 253.609 171.88 253.63ZM201.776 236.453C200.896 236.786 199.88 236.474 199.354 235.651C198.75 234.714 199.026 233.464 199.969 232.865C204.734 229.813 209.521 226.609 214.193 223.344C215.104 222.703 216.365 222.927 217.005 223.839C217.641 224.755 217.422 226.01 216.505 226.651C211.792 229.953 206.958 233.188 202.141 236.266C202.021 236.339 201.901 236.401 201.776 236.453ZM229.953 216.734C229.136 217.047 228.182 216.802 227.625 216.073C226.948 215.188 227.12 213.922 228.005 213.245C232.552 209.771 237.052 206.182 241.375 202.573C242.234 201.865 243.505 201.974 244.219 202.833C244.938 203.688 244.823 204.964 243.964 205.677C239.594 209.318 235.052 212.948 230.458 216.453C230.297 216.573 230.125 216.667 229.953 216.734ZM256.339 194.708C255.583 194.995 254.703 194.813 254.125 194.182C253.375 193.359 253.432 192.083 254.255 191.328C258.49 187.458 262.636 183.479 266.578 179.5C267.365 178.708 268.646 178.703 269.438 179.49C270.229 180.271 270.234 181.552 269.448 182.344C265.453 186.37 261.261 190.396 256.979 194.313C256.787 194.49 256.568 194.62 256.339 194.708ZM280.516 170.302C279.833 170.563 279.031 170.443 278.448 169.922C277.615 169.182 277.542 167.906 278.287 167.073C282.104 162.792 285.807 158.406 289.287 154.031C289.979 153.161 291.25 153.016 292.12 153.708C292.995 154.406 293.141 155.672 292.443 156.547C288.922 160.979 285.167 165.422 281.297 169.76C281.078 170.01 280.807 170.193 280.516 170.302ZM301.865 143.417C301.261 143.651 300.557 143.589 299.985 143.188C299.073 142.547 298.849 141.292 299.49 140.375C302.776 135.682 305.901 130.88 308.787 126.104C309.36 125.151 310.604 124.844 311.557 125.422C312.511 126 312.818 127.24 312.245 128.193C309.313 133.047 306.136 137.922 302.802 142.688C302.557 143.031 302.229 143.281 301.865 143.417ZM319.578 114.047C319.063 114.245 318.474 114.229 317.943 113.958C316.948 113.453 316.552 112.234 317.063 111.245C319.651 106.161 322.052 100.969 324.193 95.8177C324.62 94.7865 325.802 94.2969 326.833 94.7292C327.865 95.1563 328.349 96.3386 327.922 97.3646C325.74 102.615 323.297 107.901 320.656 113.078C320.422 113.542 320.031 113.875 319.578 114.047ZM332.714 82.3959C332.297 82.5521 331.828 82.5781 331.375 82.4271C330.313 82.0834 329.729 80.9479 330.073 79.8854C331.813 74.4896 333.333 68.9896 334.594 63.5313C334.844 62.4479 335.927 61.7709 337.016 62.0209C338.099 62.2709 338.781 63.3542 338.526 64.4427C337.245 70.0104 335.693 75.625 333.912 81.125C333.719 81.7344 333.266 82.1823 332.714 82.3959ZM340.396 49.0261C340.089 49.1459 339.75 49.1927 339.401 49.1406C338.292 48.9844 337.526 47.9636 337.677 46.8646C338.458 41.2917 339 35.6146 339.287 29.9896C339.344 28.875 340.292 28.0156 341.406 28.0729C342.521 28.1302 343.375 29.0781 343.318 30.1927C343.026 35.9375 342.474 41.7344 341.677 47.4219C341.573 48.1771 341.063 48.7761 340.396 49.0261ZM342.156 14.8438C341.953 14.9219 341.735 14.9688 341.505 14.9792C340.391 15.0156 339.453 14.1458 339.417 13.0313C339.302 9.86981 339.115 6.66147 338.849 3.4896C338.755 2.38022 339.583 1.40106 340.693 1.30731C341.802 1.21876 342.781 2.04168 342.87 3.15106C343.141 6.38543 343.333 9.66147 343.448 12.8854C343.485 13.7708 342.943 14.5469 342.156 14.8438Z" fill="#8FADFF"/>
</g>
</g>
</g>
<mask id="mask15_19_912" style="mask-type:luminance" maskUnits="userSpaceOnUse" x="294" y="126" width="54" height="70">
<path d="M294.667 126.667H348V196H294.667V126.667Z" fill="white"/>
</mask>
<g mask="url(#mask15_19_912)">
<mask id="mask16_19_912" style="mask-type:luminance" maskUnits="userSpaceOnUse" x="-40" y="0" width="454" height="335">
<path d="M-39.6406 146.432L342.188 0.401001L413.953 188.047L32.125 334.078L-39.6406 146.432Z" fill="white"/>
</mask>
<g mask="url(#mask16_19_912)">
<mask id="mask17_19_912" style="mask-type:luminance" maskUnits="userSpaceOnUse" x="-40" y="0" width="454" height="335">
<path d="M-39.6406 146.432L342.188 0.401001L413.953 188.047L32.125 334.078L-39.6406 146.432Z" fill="white"/>
</mask>
<g mask="url(#mask17_19_912)">
<path d="M298.182 195.036C297.464 195.307 296.625 195.161 296.042 194.589C295.25 193.807 295.234 192.531 296.016 191.734C312.104 175.344 324.786 159.375 334.781 142.901C337.802 137.917 340.583 132.865 343.042 127.875C343.531 126.87 344.745 126.464 345.745 126.953C346.745 127.448 347.156 128.656 346.661 129.656C344.151 134.75 341.318 139.911 338.234 144.995C328.073 161.734 315.208 177.953 298.896 194.562C298.687 194.776 298.443 194.932 298.182 195.036Z" fill="#8FADFF"/>
</g>
</g>
</g>
</svg>
